<?xml version="1.0" encoding="UTF-8"?>
<svg xmlns="http://www.w3.org/2000/svg"
    xmlns:xlink="http://www.w3.org/1999/xlink" width="84px" height="96px" viewBox="0 0 84 96" version="1.1">
    <g id="surface1">
        <path style=" stroke:none;fill-rule:evenodd;fill:rgb(210,110,255);fill-opacity:1;" d="M 35.351562 83.980469 L 29.445312 86.183594 L 35.351562 88.421875 L 35.351562 93.597656 L 27.535156 89.191406 C 24.113281 87.265625 24.082031 85.160156 27.535156 83.21875 L 35.351562 78.804688 Z M 30.71875 59.640625 C 36.40625 65.996094 49.296875 64.878906 54.054688 59.640625 C 52.867188 58.234375 51.765625 56.753906 50.757812 55.210938 L 50.101562 54.261719 C 47.765625 55.832031 45 56.648438 42.183594 56.59375 C 39.015625 56.617188 35.945312 55.515625 33.523438 53.484375 C 32.875 55.414062 31.960938 58.0625 31.007812 59.328125 C 30.925781 59.4375 30.828125 59.53125 30.71875 59.609375 Z M 52.867188 70.90625 L 7.816406 70.90625 C 6.925781 70.957031 6.097656 71.378906 5.542969 72.070312 C 4.984375 72.761719 4.753906 73.65625 4.902344 74.53125 L 7.660156 95.742188 L 0.625 95.742188 C 0.625 84.414062 -3.414062 70.519531 8.511719 63.882812 C 12.953125 61.421875 24.394531 60.589844 29.378906 57.332031 C 30.214844 55.550781 30.921875 53.710938 31.5 51.832031 C 31.554688 51.660156 31.460938 51.941406 31.546875 51.683594 C 29.753906 49.652344 28.160156 47.457031 26.777344 45.132812 L 22.667969 38.660156 C 21.160156 36.429688 20.375 34.386719 20.320312 32.714844 C 20.296875 31.972656 20.449219 31.234375 20.765625 30.5625 C 21.078125 29.898438 21.566406 29.332031 22.183594 28.929688 C 22.492188 28.726562 22.828125 28.558594 23.175781 28.425781 C 22.890625 24.546875 22.824219 20.65625 22.980469 16.769531 C 23.074219 15.875 23.242188 14.988281 23.488281 14.121094 C 25.011719 8.804688 29.617188 4.917969 34.898438 3.101562 C 37.460938 2.222656 36.46875 0.125 39.082031 0.257812 C 45.222656 0.589844 54.714844 4.523438 58.332031 8.695312 C 63.429688 14.539062 62.113281 21.734375 61.941406 28.898438 C 63.011719 29.179688 63.839844 30.027344 64.09375 31.097656 C 64.421875 32.386719 64.09375 34.207031 62.957031 36.6875 C 62.957031 36.6875 62.957031 36.769531 62.886719 36.816406 L 58.199219 44.488281 C 56.394531 47.449219 54.554688 50.410156 52.109375 52.695312 L 51.984375 52.800781 L 52.765625 53.890625 C 53.546875 55.078125 54.5 56.429688 55.363281 57.488281 C 60.457031 60.597656 71.660156 61.480469 76.042969 63.90625 C 86.984375 69.984375 83.257812 84.988281 83.859375 95.765625 L 76.894531 95.765625 L 79.652344 74.550781 C 79.800781 73.679688 79.570312 72.785156 79.011719 72.09375 C 78.457031 71.402344 77.628906 70.980469 76.738281 70.929688 L 52.867188 70.929688 Z M 25.511719 30.335938 C 24.789062 30.332031 24.078125 30.515625 23.449219 30.875 C 23.191406 31.042969 22.988281 31.28125 22.855469 31.558594 C 22.710938 31.902344 22.644531 32.277344 22.667969 32.652344 C 22.707031 33.894531 23.363281 35.519531 24.628906 37.394531 L 28.738281 43.898438 C 30.390625 46.5 32.125 49.15625 34.265625 51.109375 C 36.386719 53.167969 39.242188 54.316406 42.207031 54.300781 C 45.320312 54.359375 48.328125 53.171875 50.554688 51.007812 C 52.773438 48.941406 54.515625 46.121094 56.246094 43.289062 L 60.871094 35.707031 C 61.738281 33.75 62.050781 32.433594 61.855469 31.671875 C 61.738281 31.214844 61.230469 30.988281 60.363281 30.941406 C 60.175781 30.941406 59.988281 30.941406 59.800781 30.941406 C 59.585938 30.933594 59.367188 30.933594 59.152344 30.941406 C 59.03125 30.957031 58.914062 30.957031 58.792969 30.941406 C 58.371094 30.960938 57.945312 30.9375 57.527344 30.875 L 59.089844 23.878906 C 47.320312 25.722656 38.511719 17.027344 26.066406 22.140625 L 26.964844 30.398438 C 26.492188 30.425781 26.015625 30.40625 25.542969 30.335938 Z M 48.625 83.957031 L 54.53125 86.164062 L 48.625 88.398438 L 48.625 93.574219 L 56.441406 89.167969 C 59.863281 87.242188 59.886719 85.136719 56.441406 83.195312 L 48.625 78.78125 Z M 41.878906 95.058594 L 37.972656 95.058594 L 42.800781 76.363281 L 46.710938 76.363281 Z M 41.878906 95.058594 "/>
    </g>
</svg>
